<?xml version="1.0" encoding="UTF-8" standalone="no"?>
<!-- Created with Inkscape (http://www.inkscape.org/) -->

<svg
   width="104.23508mm"
   height="104.20468mm"
   viewBox="0 0 104.23508 104.20468"
   class="ionicon"
   version="1.1"
   id="svg5"
   xml:space="preserve"
   xmlns="http://www.w3.org/2000/svg"
   xmlns:svg="http://www.w3.org/2000/svg"
   ><defs
     id="defs2" /><g
     id="layer1"
     transform="translate(-20.845282,-84.026014)"><path
      class='ionicon-fill-none ionicon-stroke-width'
       style="fill:currentcolor;stroke-width:0.264583"
       d="M 65.813697,187.84132 C 51.151408,185.85636 37.86838,177.50805 29.447351,164.98526 c -1.850333,-2.7516 -4.835969,-8.81823 -5.930216,-12.04984 -3.778144,-11.15788 -3.53454,-24.6821 0.636243,-35.32251 8.039733,-20.510783 27.040217,-33.58689 48.804069,-33.58689 28.900503,0 52.122913,23.22241 52.122913,52.12291 0,26.2438 -19.36615,48.34181 -45.323445,51.71693 -3.814513,0.49598 -10.181063,0.48478 -13.943218,-0.0245 z m 13.096875,-11.24503 c 15.018217,-2.24959 27.430688,-12.42607 32.553158,-26.68902 0.66737,-1.85823 1.55588,-5.27053 1.84288,-7.07761 l 0.1786,-1.12448 H 103.4561 93.426999 l -0.4449,1.38907 c -1.938139,6.05121 -7.866038,11.62058 -14.336111,13.46903 -3.034538,0.86694 -8.342545,0.86694 -11.377083,0 -6.470072,-1.84845 -12.397972,-7.41782 -14.336111,-13.46903 l -0.444899,-1.38907 H 42.45879 32.429685 l 0.178596,1.12448 c 2.286744,14.39799 12.663503,26.84785 26.501748,31.79636 3.335866,1.1929 7.772828,2.12033 11.333876,2.36906 1.898007,0.13258 6.305053,-0.075 8.466667,-0.39879 z m -3.205697,-30.97206 c 1.328708,-0.38345 3.489208,-1.72949 4.430551,-2.76034 1.778873,-1.94801 2.611604,-4.08913 2.611604,-6.71496 0,-3.54149 -1.577465,-6.37565 -4.630208,-8.3189 -1.686984,-1.07386 -3.079078,-1.47068 -5.159375,-1.47068 -3.581585,0 -6.598721,1.73427 -8.515532,4.89479 -1.255692,2.07044 -1.65353,5.23825 -0.959768,7.64222 0.858387,2.97443 3.499741,5.66181 6.564883,6.67928 1.239375,0.4114 4.309295,0.43777 5.657845,0.0486 z M 52.932794,129.20362 c 1.938139,-6.05121 7.866039,-11.62058 14.336111,-13.46903 3.034538,-0.86694 8.342545,-0.86694 11.377083,0 6.470073,1.84845 12.397972,7.41782 14.336111,13.46903 l 0.4449,1.38906 h 10.029101 10.02911 l -0.1786,-1.12447 c -2.2908,-14.42354 -12.66254,-26.84907 -26.557628,-31.816525 -4.491119,-1.60556 -8.803558,-2.335998 -13.791535,-2.335998 -5.010089,0 -9.299564,0.729858 -13.847418,2.356157 -13.838245,4.948506 -24.215004,17.398376 -26.501748,31.796366 l -0.178596,1.12447 H 42.45879 52.487895 Z"
       id="path255" /></g></svg>
