<?xml version="1.0" encoding="UTF-8" standalone="no"?>
<!-- Created with Inkscape (http://www.inkscape.org/) -->

<svg
   width="225.17989mm"
   height="246.28282mm"
   viewBox="0 0 225.17989 246.28282"
   class="ionicon"
   version="1.1"
   id="svg5"
   xml:space="preserve"
   xmlns="http://www.w3.org/2000/svg"
   xmlns:svg="http://www.w3.org/2000/svg"><defs
     id="defs2" /><g
     id="layer1"
     transform="translate(86.174151,34.610526)"><path class='ionicon-fill-none ionicon-stroke-width'
       style="display:none;fill:currentcolor;stroke-width:0.264583"
       d="m 129.5652,283.25294 c 0,-0.38342 -0.42488,-3.23497 -0.94418,-6.33677 -3.90232,-23.30856 -10.25465,-44.39512 -17.33578,-57.54603 -2.75531,-5.1171 -5.5817,-7.47652 -10.98356,-9.16889 -6.295521,-1.97233 -16.768454,-2.03152 -28.484327,-0.16097 -12.362286,1.97375 -29.694455,6.65573 -44.469543,12.01266 -1.867532,0.6771 -3.523197,1.18853 -3.679253,1.13651 -0.156056,-0.052 1.312394,-1.20874 3.263222,-2.57051 21.508089,-15.01356 39.342305,-31.44757 46.669014,-43.00491 3.026143,-4.77351 4.893543,-9.87173 4.89797,-13.37202 0.0077,-6.08325 -5.883011,-14.38388 -20.749515,-29.23828 -9.192255,-9.18477 -19.708474,-18.6803 -30.765997,-27.77989 -1.760958,-1.44915 -3.165736,-2.67207 -3.121729,-2.7176 0.04401,-0.0455 1.610416,0.47209 3.480907,1.15026 14.780749,5.35898 32.110665,10.04054 44.474924,12.01461 8.671696,1.38452 17.992517,1.75021 23.555575,0.92417 8.285142,-1.23022 12.524372,-3.96202 15.912312,-10.25403 7.2371,-13.440592 14.18784,-36.878352 17.6297,-59.447018 0.76442,-5.012391 0.95092,-5.816948 1.10394,-4.7625 3.39495,23.394335 9.43722,45.532801 16.39051,60.053728 2.54048,5.3054 3.96085,7.55239 5.92146,9.36756 8.32921,7.71139 29.48565,7.06197 60.7104,-1.86357 5.16602,-1.4767 16.157,-5.04081 20.35885,-6.60188 1.30195,-0.4837 2.39748,-0.84915 2.43452,-0.81212 0.037,0.037 -2.27753,2.02774 -5.14346,4.42379 -11.36411,9.5009 -20.42568,17.70725 -28.90739,26.17912 -12.3211,12.30681 -18.85723,20.77891 -20.26861,26.27206 -1.2063,4.695 1.01921,11.44225 6.1285,18.58027 3.08378,4.30823 5.73187,7.33626 11.23509,12.84705 9.34133,9.35417 21.7117,19.48953 34.85414,28.55688 1.33946,0.92413 2.38079,1.7686 2.31404,1.87659 -0.0667,0.10798 -0.99857,-0.14145 -2.07074,-0.55431 -1.07216,-0.41286 -4.4352,-1.58649 -7.47342,-2.60808 -26.10605,-8.77807 -48.41805,-12.76958 -61.58503,-11.01725 -6.96445,0.92686 -11.84944,3.30285 -14.53859,7.07136 -4.43709,6.21801 -10.48065,21.87964 -14.42508,37.38193 -2.08989,8.21365 -4.66254,20.95805 -5.60808,27.78125 -0.32139,2.31926 -0.78079,3.60593 -0.78079,2.18683 z"
       id="path482" /><path class='ionicon-fill-none ionicon-stroke-width'
       style="display:none;fill:currentcolor;stroke-width:0.264583"
       d="m 16.799172,184.3187 c -48.878007,-2.66048 -90.812839,-32.14313 -104.592988,-73.53501 -6.745873,-20.262802 -6.172409,-42.469084 1.60925,-62.31521 6.901486,-17.601357 18.796468,-32.880579 35.093797,-45.0783338 12.05135,-9.0198471 26.552528,-15.9403502 41.8648574,-19.9794682 1.9556915,-0.515877 3.5901789,-0.903583 3.6321921,-0.861568 0.042016,0.04201 -0.541229,0.54534 -1.2960985,1.118502 -2.0576858,1.562372 -5.942177,5.514102 -7.926708,8.0639181 -10.073902,12.9433905 -13.076992,29.6832579 -8.107966,45.1955389 5.942111,18.550049 22.51406599,31.927208 41.986955,33.89257 13.024734,1.314564 26.173801,-2.815794 36.466625,-11.454818 7.020484,-5.89247 12.455062,-14.091823 15.1431,-22.846962 1.709758,-5.568818 1.986467,-7.559961 1.996948,-14.369593 0.0084,-5.484355 -0.06303,-6.576584 -0.605984,-9.260417 -1.525767,-7.5419821 -4.572518,-14.4320471 -9.0088,-20.3729168 -1.845646,-2.4716079 -5.966646,-6.7639832 -8.207286,-8.5485922 -0.930629,-0.741224 -1.561801,-1.391096 -1.402601,-1.444162 0.159197,-0.05307 1.926863,0.334276 3.928142,0.860761 32.88859,8.652129 59.973293,29.754746 73.672873,57.401059 8.55792,17.270233 11.52502,36.433626 8.56661,55.328501 -6.76692,43.219101 -44.299251,78.125771 -92.994846,86.489161 -9.835208,1.68918 -19.794131,2.26265 -29.818072,1.71704 z"
       id="path529" /><path class='ionicon-fill-none ionicon-stroke-width'
       style="display:none;fill:currentcolor;stroke-width:0.264583"
       d="m -25.961971,197.96028 v -11.90625 h 5.756994 5.756995 l 5.6200891,-5.62465 5.6200888,-5.62465 v -11.90625 -11.90625 l 5.7568943,-5.75243 5.7568916,-5.75243 H 20.203339 32.100694 l 5.761377,-5.76138 5.761376,-5.76138 V 110.6356 93.306595 l 6.064213,-5.881492 6.064213,-5.881489 h 34.749924 34.749923 l 6.01711,6.021382 6.01712,6.021383 v 35.057441 35.05743 l -5.75689,5.75243 -5.7569,5.75244 H 108.30961 90.847062 l -5.752431,5.75689 -5.752433,5.75689 v 11.57332 11.57331 H 26.690113 -25.961971 Z m -52.755323,-29.03802 -5.695132,-6.01927 -0.01123,-34.45765 -0.01123,-34.457641 5.877065,-6.354334 5.877063,-6.354334 h 46.46852 46.468518 l 6.127335,6.38026 6.127335,6.380258 v 11.199351 11.19936 l -5.594446,5.9683 -5.594445,5.96831 H 9.1134267 -3.0952053 l -5.6125482,5.99248 -5.6125505,5.99248 -0.0048,10.8747 -0.0048,10.87471 -5.959891,6.41615 -5.959893,6.41614 H -49.635884 -73.02208 Z m 2.04233,-98.469432 c -2.549189,-0.925536 -5.256027,-3.263048 -6.419473,-5.543593 -1.384223,-2.713299 -1.340452,-1.43289 -1.340452,-39.212182 0,-22.39998 0.09623,-35.6134889 0.26598,-36.523058 0.652549,-3.496484 3.14737,-6.641719 6.544784,-8.251041 l 1.788194,-0.847051 h 15.880565 15.880562 l 1.846521,0.908942 c 2.369143,1.166201 4.269293,3.066351 5.435495,5.435494 l 0.908941,1.846522 v 37.179521 37.179523 l -0.848944,1.792243 c -1.115261,2.354471 -3.206425,4.445635 -5.560897,5.560896 l -1.792242,0.848945 -15.610417,0.0608 c -14.695898,0.05724 -15.690573,0.0317 -16.978617,-0.435957 z m 57.191829,0.03473 c -4.249245,-1.4796 -7.182162,-4.995666 -7.814432,-9.368176 -0.343889,-2.378176 -0.323077,-84.004049 0.02198,-86.20285 0.598895,-3.81636 3.000111,-6.987864 6.58797,-8.701335 l 2.001692,-0.955957 14.8034109,-0.07673 c 9.5913049,-0.04971 15.2574361,0.02064 16.0929241,0.199824 4.419066,0.947719 8.081897,4.706029 8.9001,9.132096 0.387035,2.093668 0.40576,85.16442 0.01966,87.215467 -0.645681,3.429992 -3.017776,6.485779 -6.290432,8.103476 L 12.827598,70.82799 -2.6645794,70.8887 C -16.817431,70.94416 -18.271422,70.90947 -19.483126,70.487559 Z M 39.1418,70.427917 C 35.444673,69.087581 32.531235,65.761043 31.729346,61.964447 31.501162,60.884081 31.442972,49.366155 31.503448,17.249862 l 0.08146,-43.259376 0.593429,-1.455208 c 1.197202,-2.935789 3.746823,-5.485411 6.682613,-6.682614 1.437762,-0.586313 1.631267,-0.594446 16.139584,-0.678369 10.537312,-0.06095 15.095344,0.0028 16.139583,0.2259 3.369702,0.719788 6.450984,3.232598 8.016492,6.537514 l 0.84705,1.788194 v 44.455565 44.455563 l -0.908941,1.846522 c -1.166019,2.368769 -3.066344,4.269232 -5.435098,5.435494 l -1.846122,0.908942 -15.616378,0.0608 c -14.96208,0.05825 -15.676666,0.03894 -17.055317,-0.460868 z m 56.184677,0.054 C 92.254079,69.410291 90.020861,67.39865 88.520539,64.351264 l -0.843966,-1.71423 V 25.45751 -11.722014 l 0.880499,-1.800788 c 1.136171,-2.32369 3.176651,-4.366228 5.508758,-5.514321 l 1.801701,-0.886974 h 15.880559 15.88057 l 1.78819,0.847051 c 3.28856,1.557758 5.82587,4.658 6.51742,7.963368 0.20638,0.986414 0.29241,11.88961574 0.29021,36.777084 -0.003,29.121085 -0.0673,35.615884 -0.36594,36.737553 -0.85084,3.195518 -3.18018,6.024864 -6.214,7.547861 l -1.7513,0.879169 -15.61042,0.06169 c -14.362667,0.05676 -15.717993,0.02416 -16.956343,-0.407762 z"
       id="path576" /><path class='ionicon-fill-none ionicon-stroke-width'
       style="display:none;fill:currentcolor;stroke-width:0.264583"
       d="m 11.34428,209.3257 c -28.684679,-2.19839 -51.251061,-11.32309 -70.000317,-28.30457 -13.009547,-11.78294 -24.056208,-28.94379 -30.181605,-46.88674 -1.00542,-2.94514 -3.002387,-9.99547 -3.004741,-10.60828 -4.5e-4,-0.12021 1.345403,1.04101 2.990812,2.58048 8.546148,7.99591 18.208101,14.17354 28.493765,18.21827 3.350123,1.3174 7.647065,2.68489 7.837644,2.49431 0.06693,-0.0669 -1.174342,-1.74028 -2.758374,-3.71855 -7.655801,-9.56124 -13.814999,-19.85195 -17.602544,-29.41013 -10.387125,-26.212756 -4.938776,-51.770726 15.524782,-72.826094 4.237797,-4.360354 9.639679,-8.886417 13.534951,-11.340499 l 0.79375,-0.500076 -0.517244,0.79375 c -5.290154,8.118134 -8.052428,14.351818 -9.446694,21.318559 -0.839455,4.194509 -0.840492,10.534224 -0.0024,14.450042 1.165075,5.44335 3.707935,11.128365 7.131138,15.942922 2.232861,3.140403 7.30345,8.416753 10.768039,11.205001 2.464043,1.983023 5.964984,4.419936 6.34981,4.419936 0.09191,0 -0.14699,-0.506016 -0.530882,-1.124479 -1.324414,-2.133685 -4.075525,-8.010425 -4.861536,-10.384896 -2.628916,-7.941705 -2.817082,-16.555125 -0.529854,-24.254228 1.634685,-5.502564 4.728996,-11.380838 8.954582,-17.011063 6.091753,-8.116708 14.10844,-15.719121 28.1933599,-26.736417 C 13.95192,8.6701177 15.430314,7.3470158 17.545158,4.1608662 20.069071,0.35842788 21.214916,-4.7509489 20.616034,-9.5323377 19.699361,-16.851046 15.478786,-25.532934 9.2053932,-33.004495 c -0.8629015,-1.027709 -1.4738007,-1.868561 -1.357556,-1.868561 0.3837597,0 6.3246428,2.316171 8.8358458,3.444828 24.066849,10.81683 39.690276,33.2121939 45.033449,64.553091 1.575621,9.241957 2.144366,17.742903 1.929474,28.839584 -0.16384,8.460526 -0.860475,17.230138 -1.658435,20.877237 l -0.139287,0.636613 2.991969,-0.163499 c 12.680165,-0.692914 26.06696,-4.593923 34.778663,-10.134756 8.827164,-5.614268 15.547384,-13.673217 18.345554,-22.000147 0.42737,-1.271778 0.85214,-2.312324 0.94393,-2.312324 0.30343,0 3.07382,4.71545 4.39743,7.484806 1.44656,3.026614 2.86803,7.09458 3.53272,10.109986 0.58659,2.661108 0.82585,10.626937 0.40685,13.545863 -1.5771,10.986715 -7.36749,21.456804 -17.72906,32.057384 -6.96126,7.12183 -16.427055,14.49058 -24.870724,19.36089 -1.170959,0.67541 -2.129018,1.29383 -2.129018,1.37428 0,0.22792 7.186552,-0.18669 10.715625,-0.61821 17.945827,-2.19436 35.279177,-10.80719 48.369397,-24.03447 2.60859,-2.6359 3.09915,-3.03156 2.95241,-2.38125 -1.39421,6.17883 -4.45317,15.34618 -7.71266,23.11395 -13.3143,31.72965 -34.32003,55.61638 -60.386186,68.66834 -11.965792,5.99157 -25.041014,9.73728 -39.856453,11.41784 -4.334978,0.49173 -20.519928,0.72162 -25.255051,0.35872 z m 19.579167,-3.97882 c 6.5429,-0.55436 12.508873,-1.70682 17.818198,-3.44199 13.75418,-4.49507 19.911585,-12.40107 17.376895,-22.31161 -0.682969,-2.67038 -1.526347,-4.53801 -4.012309,-8.88508 -3.383653,-5.91682 -4.670129,-9.76492 -4.913786,-14.69807 -0.16496,-3.33982 0.288372,-6.18233 1.447914,-9.07882 1.63173,-4.07598 5.762109,-8.88845 10.060858,-11.72229 l 2.042022,-1.34616 -3.307291,0.14749 c -7.534958,0.33601 -15.037547,2.84734 -20.363263,6.81617 -3.770074,2.80953 -7.514553,7.28343 -9.129832,10.90831 l -0.614307,1.37858 0.142778,-4.25685 c 0.256696,-7.65327 -0.916639,-13.06338 -3.792776,-17.48807 -1.500926,-2.30904 -5.18522,-5.79483 -8.448866,-7.99365 -4.383418,-2.95324 -4.940165,-3.57029 -5.279573,-5.85138 -0.543171,-3.65056 2.593563,-10.31577 7.986176,-16.96972 0.842574,-1.039655 1.823215,-2.24874 2.179201,-2.686853 l 0.647248,-0.796573 -1.837873,0.186923 C 21.019285,98.06129 11.863659,101.8911 4.5974044,107.43345 c -2.6389039,2.01282 -7.5098144,6.93117 -8.8542126,8.94044 -3.0150013,4.50606 -3.131582,8.27444 -0.3840401,12.41379 0.5508228,0.82985 2.5991847,3.1847 4.55191294,5.233 5.38102986,5.6444 6.58046016,7.68807 6.84520756,11.66336 0.3437546,5.1616 -2.1318538,10.56995 -7.03300616,15.3647 l -1.62051744,1.58534 0.2046209,-0.92388 c 0.1125405,-0.50813 0.190955,-1.81684 0.1742572,-2.90825 -0.038949,-2.54566 -0.7374546,-4.38437 -2.4851599,-6.5418 -4.2152518,-5.20346 -10.7977358,-8.0145 -18.7519498,-8.00799 -3.06836,0.002 -5.587738,0.23413 -5.587738,0.51371 0,0.0977 0.625078,0.33052 1.389062,0.5173 0.763985,0.18677 2.493754,0.86841 3.84393,1.51476 6.244427,2.98928 9.027626,8.54963 7.615108,15.2137 -0.679952,3.20792 -2.005113,5.35018 -5.951159,9.62066 -3.470532,3.75588 -4.118816,5.02634 -4.118816,8.07174 0,2.88418 0.92941,5.52925 3.064348,8.72101 8.471123,12.66447 28.5624466,19.02829 53.424195,16.92184 z"
       id="path626" /><path class='ionicon-fill-none ionicon-stroke-width'
       style="display:none;fill:currentcolor;stroke-width:0.264583"
       d="m 18.223446,209.15555 c -7.667826,-0.80425 -27.4328495,-4.45328 -28.2225356,-5.21045 -0.9250544,-0.88697 -4.7765314,-17.78899 -6.7296484,-29.53273 -0.326723,-1.96454 -0.617492,-3.60612 -0.646152,-3.64797 -0.02866,-0.0418 -1.168805,-0.37284 -2.533658,-0.73553 -11.163374,-2.96653 -23.515106,-8.5501 -33.062805,-14.94597 -8.95155,-5.99651 -16.821018,-13.93838 -21.745488,-21.94553 -4.28158,-6.96183 -7.205799,-15.59649 -8.136658,-24.026 -0.472402,-4.27788 -0.201645,-14.000923 0.513487,-18.439631 1.552027,-9.633183 4.340983,-17.982891 9.087139,-27.205512 C -60.885009,39.433276 -37.32173,16.922758 -2.9432207,-3.7021326 16.082748,-15.116491 39.643354,-26.288723 61.482823,-34.252399 l 5.291666,-1.929585 0.750502,0.852901 c 0.412776,0.469096 2.625479,3.353215 4.917117,6.409152 12.34254,16.458984 24.77506,35.6176513 34.085652,52.526411 15.01663,27.271374 23.88139,51.246028 26.70548,72.224634 0.37791,2.807272 0.4794,5.299316 0.47415,11.641666 -0.006,7.74843 -0.035,8.20211 -0.71887,11.39253 -2.02188,9.4332 -6.05349,16.83786 -13.15406,24.15947 -15.14991,15.62152 -42.565534,26.54209 -79.427981,31.63887 -5.381715,0.74411 -13.477756,1.55316 -17.420532,1.74088 -1.819011,0.0866 -3.55454,0.20667 -3.856734,0.2668 l -0.549444,0.10934 0.733896,4.96741 c 1.36975,9.27123 2.12395,16.32994 2.273173,21.2751 0.08183,2.71183 0.07065,5.24191 -0.02484,5.62239 -0.183231,0.73006 -0.61355,0.7958 -3.338547,0.50998 z M 2.1029524,171.98228 c 0.6173708,-11.00069 1.2296934,-19.50705 1.7010804,-23.63137 l 0.362884,-3.175 1.5381605,-1.42655 c 2.6229972,-2.43267 6.6702497,-5.5445 10.5339937,-8.09934 12.803487,-8.46609 26.792987,-13.60686 42.597918,-15.6536 5.090708,-0.65925 18.469275,-0.66422 23.680209,-0.009 4.496242,0.56553 10.247736,1.6041 14.020978,2.53183 1.601795,0.39384 2.912356,0.68762 2.912356,0.65286 0,-0.2051 -3.766206,-2.1098 -6.441895,-3.2579 -25.703841,-11.02915 -55.173945,-10.04301 -84.5490963,2.82922 -0.4537049,0.19881 -0.3348884,-1.46864 0.6639401,-9.31772 0.9942802,-7.81333 2.2090992,-14.121304 3.2427812,-16.83821 0.791556,-2.080511 12.841507,-9.267367 21.502095,-12.824322 7.806767,-3.206285 15.953164,-5.372535 24.439465,-6.498823 4.151601,-0.550993 17.936198,-0.470999 21.960418,0.127439 7.434704,1.105609 14.036082,2.807237 20.13849,5.191069 1.86168,0.727245 3.42057,1.286561 3.46421,1.242926 0.0436,-0.04364 -0.84381,-0.740903 -1.9721,-1.54948 C 93.690148,76.393811 82.219301,71.372496 71.886702,69.138814 54.84345,65.454433 37.336809,67.746659 21.332301,75.758131 c -1.70987,0.85592 -3.108855,1.430182 -3.108855,1.276136 0,-0.985695 3.836276,-15.094726 4.404837,-16.200089 0.480862,-0.934857 4.87648,-4.446317 8.889381,-7.101324 10.659338,-7.052403 22.408338,-11.637365 34.523855,-13.472681 6.907568,-1.04639 17.184839,-0.991839 24.257268,0.128762 2.70669,0.428863 2.308281,0.122737 -2.165524,-1.663933 -17.169964,-6.857035 -36.392423,-6.179712 -55.330057,1.949611 -1.822834,0.782484 -3.353028,1.383914 -3.400431,1.336511 -0.0474,-0.0474 2.254682,-5.727377 5.11574,-12.622168 2.861062,-6.894777 5.590678,-13.488469 6.065817,-14.652636 0.896871,-2.197486 7.450886,-18.034635 8.184727,-19.7776042 0.229756,-0.5457031 0.355134,-0.9921875 0.278619,-0.9921875 -0.413358,0 -11.429037,15.4189011 -16.107868,22.5465567 -5.802194,8.838962 -11.29824,18.50186 -13.549252,23.821674 -0.415634,0.982265 -0.818499,1.785273 -0.895257,1.784463 -0.07676,-7.93e-4 -0.973,-0.669663 -1.991646,-1.486339 C 5.592431,31.885075 -8.0057478,26.765248 -17.498014,27.830971 c -2.324727,0.261003 -6.758138,1.267073 -6.540892,1.484318 0.05213,0.05213 1.236338,0.391384 2.63157,0.753895 6.096111,1.583905 13.2457407,5.280406 18.4641153,9.546321 2.18321468,1.784733 6.182794,5.82962 7.9711446,8.061441 1.6176096,2.018745 3.750273,5.239327 5.1025031,7.705408 l 0.960832,1.752283 -1.4821302,3.2748 C 8.0312861,63.895712 5.0870874,71.235698 4.342952,73.538187 L 3.8946023,74.925469 1.7324616,73.241468 c -5.072433,-3.950706 -10.7068358,-6.969184 -16.7490276,-8.972836 -9.978732,-3.309052 -19.1779,-3.654452 -29.260504,-1.098643 -2.755049,0.698368 -7.05326,2.157095 -7.468548,2.534677 -0.14279,0.129825 0.903793,0.228531 2.423123,0.228531 9.227548,0 21.446205,3.317523 29.788552,8.087976 6.592279,3.769702 12.9544979,9.582479 17.0660595,15.592233 l 1.0860855,1.5875 -0.9197552,3.307291 c -1.2210733,4.390774 -2.86979,12.620823 -3.5777515,17.859373 -0.314661,2.32834 -0.6036654,4.27041 -0.6422311,4.31571 -0.038566,0.0453 -0.8863304,-0.50991 -1.8839233,-1.23381 -4.1933419,-3.04291 -10.5744699,-6.41359 -15.8367209,-8.36539 -10.505281,-3.89648 -21.777606,-4.70198 -31.404182,-2.2441 -2.546533,0.65019 -6.580876,2.01515 -6.900363,2.33464 -0.120885,0.12088 0.741797,0.29998 1.917073,0.398 5.547575,0.46265 14.029082,2.38281 19.983305,4.5241 7.173252,2.57969 15.467677,7.22559 20.717633,11.60443 4.088574,3.41017 8.951251,8.94714 11.3706247,12.94736 l 0.8674206,1.4342 -0.3006699,3.14972 c -0.8153003,8.5408 0.9372177,19.62514 4.7021699,29.74035 1.1527155,3.09698 4.5242295,10.19742 4.7397274,9.98192 0.086738,-0.0867 0.3803147,-4.12433 0.6523937,-8.97242 z"
       id="path718" /><path class='ionicon-fill-none ionicon-stroke-width'
       style="display:none;fill:currentcolor;stroke-width:0.264583"
       d="M 8.5892257,208.77605 C 10.56806,201.73154 41.959841,87.483957 41.927728,87.443545 41.90448,87.414287 19.813922,94.231158 -7.1623991,102.59214 -34.13872,110.95313 -56.264076,117.74012 -56.329854,117.67434 -56.440141,117.56406 49.607691,-32.92962 50.415318,-33.808937 50.870804,-34.304854 52.523129,-39.630529 35.312796,14.868612 27.247838,40.407519 20.668981,61.317689 20.693114,61.335659 20.717244,61.353624 41.15591,55.32083 66.112373,47.929443 91.068833,40.538059 111.50966,34.512462 111.53642,34.539227 111.59639,34.5992 8.5865587,209.80203 8.3554345,210.03316 c -0.091273,0.0913 0.013944,-0.47443 0.2337912,-1.25711 z"
       id="path765" /><path class='ionicon-fill-none ionicon-stroke-width'
       style="display:none;fill:currentcolor;stroke-width:0.264583"
       d="m -16.229726,185.98789 c -3.38547,-5.12961 -8.561136,-12.95631 -11.50148,-17.39267 l -5.346075,-8.0661 0.713382,-1.21921 c 5.062252,-8.6516 15.313296,-25.30451 15.47635,-25.14146 0.116981,0.11698 4.95885,8.35652 10.7597106,18.31008 l 10.5470169,18.09738 20.7266145,0.0586 20.726612,0.0586 11.094562,-18.26287 c 6.102009,-10.04458 11.164814,-18.30629 11.250679,-18.35936 0.08586,-0.0531 3.750395,6.08532 8.143396,13.64086 l 7.987279,13.73735 -11.168166,16.92902 -11.168166,16.92903 -36.043156,0.004 -36.043154,0.004 z M -5.4643983,87.857903 C -22.195096,58.885766 -35.923534,35.075781 -35.97204,34.946826 c -0.05109,-0.135806 25.594657,-0.234463 60.948622,-0.234463 57.916383,0 61.027772,0.02357 60.859936,0.460936 C 85.624629,35.725476 25.407498,140.06417 25.140557,140.34167 25.038526,140.44773 11.266296,116.83004 -5.4643983,87.857903 Z M -87.477598,64.227433 c -4.656667,-9.512565 -8.503645,-17.477237 -8.548842,-17.699273 -0.0452,-0.222036 8.031521,-14.333157 17.948261,-31.358045 l 18.030431,-30.95434 0.969452,-0.142666 c 2.478468,-0.364739 38.392003,-3.398498 38.723846,-3.271158 0.353213,0.13554 16.6174792,27.3898053 16.6174792,27.8461481 0,0.116369 -9.7745472,0.1646052 -21.7212182,0.1071933 l -21.72122,-0.1043887 -10.544308,18.0465313 -10.544308,18.046531 9.598962,17.804511 c 5.27943,9.792481 9.742324,18.072402 9.917544,18.399824 l 0.318583,0.595313 -15.288999,-0.01029 -15.288996,-0.01029 -8.466667,-17.295572 z M 101.33645,80.948301 c 0.17437,-0.327422 4.63753,-8.606875 9.91815,-18.398784 L 120.85572,44.746046 110.3108,26.698475 99.765886,8.6509037 78.044665,8.7552924 c -11.94667,0.057412 -21.721218,0.00918 -21.721218,-0.1071933 0,-0.4563428 16.264266,-27.7106081 16.61748,-27.8461481 0.331843,-0.12734 36.245373,2.906419 38.723843,3.271158 l 0.96945,0.142666 18.03044,30.95434 c 9.91674,17.024888 17.99345,31.136009 17.94826,31.358045 -0.0452,0.222036 -3.89218,8.186708 -8.54885,17.699273 l -8.46666,17.295572 -15.289,0.01029 -15.289,0.01029 0.31704,-0.595312 z"
       id="path812" /><path class='ionicon-fill-none ionicon-stroke-width'
       style="display:none;fill:currentcolor;stroke-width:0.264583"
       d="m 18.884905,170.55296 c -0.727604,-0.0547 -2.811198,-0.22596 -4.630209,-0.38066 -36.02331,-3.06352 -69.467141,-23.23864 -95.277208,-57.47635 -5.374105,-7.12889 -10.757067,-15.501279 -14.658052,-22.798411 l -1.545433,-2.890867 0.458945,-1.292188 c 0.770849,-2.170377 4.260804,-9.513718 6.544001,-13.769472 C -73.564777,40.89489 -50.699857,17.185987 -25.03593,4.3517181 1.1457454,-8.7414716 31.89243,-10.926046 59.905019,-1.6833988 74.484204,3.1269459 88.344255,11.187795 101.68283,22.614102 c 12.33148,10.56359 24.88501,25.800005 34.60446,41.999988 4.60754,7.679664 10.57128,19.28439 11.20219,21.798132 0.41383,1.648855 -8.63919,16.523198 -15.99716,26.283728 -18.41537,24.42847 -40.708395,41.75114 -65.444578,50.85337 -8.825537,3.24755 -18.214808,5.40636 -28.245128,6.49421 -3.615463,0.39212 -16.029576,0.72642 -18.917709,0.50943 z m 19.05,-23.50098 C 55.428862,144.76744 70.480357,138.50573 85.382628,127.3128 98.8897,117.1678 112.17045,102.2786 120.82045,87.583057 l 1.35083,-2.294935 -1.33347,-2.599857 C 116.72799,74.67539 110.42049,65.305333 103.67167,57.187267 100.25644,53.079143 91.265374,44.056404 87.455239,40.913723 79.412008,34.279496 71.101356,29.060018 62.673448,25.349602 59.099511,23.776165 51.375392,20.94846 50.678639,20.95845 c -0.169575,0.0024 0.703715,0.546463 1.940642,1.208961 16.460311,8.816123 28.103471,25.584423 31.123872,44.824119 0.667914,4.254553 0.673925,13.978742 0.0113,18.256251 -1.994467,12.874797 -7.385656,24.018769 -16.292146,33.676999 -2.293411,2.48699 -6.98401,6.39103 -10.400233,8.65624 -6.943345,4.60395 -14.722912,7.6579 -23.371853,9.17486 -3.750393,0.6578 -14.747714,0.6578 -18.498107,0 -6.1278581,-1.07478 -11.4764765,-2.78619 -16.68762,-5.33957 -17.744382,-8.69448 -30.241667,-25.81034 -33.323959,-45.639363 -0.673347,-4.331769 -0.816248,-12.106981 -0.303292,-16.501846 1.405951,-12.045757 6.018818,-23.061764 13.53969,-32.334171 4.500877,-5.549088 11.093005,-11.088188 17.1184941,-14.383981 1.1277864,-0.616871 2.0505208,-1.167239 2.0505208,-1.223039 0,-0.236384 -7.2958697,2.454614 -10.5833339,3.903541 -18.869896,8.316775 -36.368313,23.787582 -49.91973,44.135329 -2.978779,4.472702 -5.483534,8.694307 -7.55718,12.73714 l -1.608344,3.13567 1.403684,2.316199 c 4.910889,8.1034 12.434062,17.521711 20.242517,25.341741 16.176094,16.20006 34.058155,26.75334 53.7974396,31.74908 5.546778,1.40381 10.6291704,2.19223 18.5666144,2.88019 2.42537,0.21021 13.1922,-0.1132 16.007292,-0.48082 z M 28.290689,102.82435 C 46.729195,99.326628 56.597447,78.716342 47.985672,61.690492 46.119936,58.001853 42.411973,53.761694 38.973183,51.38446 32.859916,47.158363 25.260916,45.519769 18.209307,46.907088 l -1.517502,0.298548 2.173735,2.153886 c 3.384666,3.35376 5.339416,7.224813 5.98201,11.846372 0.990071,7.120602 -1.868813,14.42877 -7.34753,18.782507 -3.692469,2.934269 -7.454077,4.266721 -12.1088655,4.28925 -2.927612,0.01416 -5.03417962,-0.357462 -7.3689477,-1.299995 l -1.5481141,-0.624967 0.1787842,0.719941 c 0.3402436,1.370119 1.7348306,4.613323 2.66948717,6.20807 3.01154313,5.138418 7.97831743,9.573742 13.17535093,11.76557 1.886625,0.79568 4.971288,1.71018 6.784065,2.01126 1.71763,0.28527 6.996089,0.14865 9.008909,-0.23318 z"
       id="path859" /><path class='ionicon-fill-none ionicon-stroke-width'
       style="fill:currentcolor;stroke-width:0.264583"
       d="m 28.80678,211.42389 c -13.564852,-0.89705 -28.94817429,-4.12792 -41.402268,-8.69547 -27.790469,-10.19218 -49.268977,-27.10353 -61.627908,-48.52343 -6.304254,-10.92623 -9.981362,-22.35419 -11.588852,-36.01658 -0.546575,-4.64546 -0.4548,-20.490719 0.145583,-25.135421 2.376016,-18.381417 7.860403,-32.891911 17.824413,-47.159509 23.019312,-32.961663 68.20160549,-57.337067 131.306706,-70.838681 22.870901,-4.89333 50.676876,-8.55719 72.233996,-9.517927 l 3.30729,-0.147397 -4.10104,1.168888 C 111.301,-26.714059 93.80294,-18.695732 82.025634,-9.2102842 79.01044,-6.7818457 73.604642,-1.291953 71.004158,1.9826494 61.830781,13.534017 58.020101,25.490646 59.628583,37.675373 c 1.290748,9.777802 5.293516,19.320368 12.962985,30.903657 3.538739,5.344597 7.715788,10.933682 15.711679,21.022956 13.995403,17.659504 18.147743,23.909634 21.574863,32.474604 7.16503,17.90664 8.60532,34.93758 4.11637,48.67457 -1.12245,3.4349 -4.41243,9.9437 -6.46457,12.78933 -11.744474,16.28566 -32.82653,25.9774 -60.686365,27.89845 -4.598858,0.31711 -13.121534,0.31 -18.036765,-0.0151 z m -5.493139,-15.69921 c 5.048967,-0.90023 8.008456,-2.61232 9.42879,-5.45466 1.550633,-3.10309 0.958434,-6.54145 -1.871713,-10.86732 -6.223701,-9.51291 -21.575467,-18.88662 -37.6503972,-22.98915 -9.1812218,-2.34316 -17.6010678,-2.53666 -22.9497498,-0.5274 -3.115133,1.17022 -5.355834,3.36211 -6.048637,5.91688 -0.681196,2.51197 0.344688,6.25124 2.662317,9.70394 1.576567,2.3487 6.738422,7.45387 9.87711,9.76864 9.939515,7.33037 23.29904242,12.7958 35.244377,14.41862 3.477533,0.47243 8.749366,0.48663 11.307903,0.0305 z"
       id="path906" /></g></svg>
