<?xml version="1.0" standalone="no"?>
<!DOCTYPE svg PUBLIC "-//W3C//DTD SVG 20010904//EN"
 "http://www.w3.org/TR/2001/REC-SVG-20010904/DTD/svg10.dtd">
<svg version="1.0" xmlns="http://www.w3.org/2000/svg" viewBox="0 0 256.000000 268.000000" class='ionicon'
 preserveAspectRatio="xMidYMid meet">

<g transform="translate(0.000000,268.000000) scale(0.100000,-0.100000)" stroke="none">
<path d="M396 2664 c-182 -44 -337 -201 -381 -385 -12 -54 -15 -187 -15 -876
0 -566 3 -828 11 -865 38 -178 168 -324 342 -386 64 -23 91 -26 252 -30 99 -2
178 -2 175 1 -3 3 -40 28 -82 56 -430 287 -579 857 -347 1325 132 265 379 464
674 543 88 23 119 26 255 26 136 0 167 -3 255 -26 298 -79 541 -275 674 -543
199 -401 123 -878 -192 -1196 -40 -41 -109 -98 -153 -127 -43 -29 -81 -55 -84
-58 -3 -3 76 -3 175 -1 210 6 267 20 377 95 112 75 194 199 217 327 7 40 11
329 11 865 0 684 -3 816 -15 870 -44 187 -199 342 -386 386 -92 21 -1673 21
-1763 -1z m337 -439 c119 -38 217 -72 217 -76 0 -4 -12 -10 -27 -14 -62 -15
-219 -103 -295 -165 -139 -112 -263 -284 -340 -472 -17 -43 -33 -76 -34 -75
-2 2 24 205 56 452 33 248 60 453 60 457 0 7 19 1 363 -107z m1501 -330 c31
-236 59 -446 62 -465 3 -25 -5 -11 -29 45 -144 341 -328 536 -606 641 -47 19
-84 34 -81 34 3 1 136 43 295 94 160 51 293 90 296 87 4 -3 32 -199 63 -436z"/>
<path d="M1139 1522 c-142 -48 -253 -145 -316 -279 -34 -70 -38 -88 -41 -175
-4 -78 0 -110 16 -165 66 -215 262 -363 481 -363 91 0 163 19 246 65 62 35
155 124 192 185 66 108 83 279 41 406 -45 136 -168 265 -305 318 -72 28 -241
32 -314 8z m221 -350 c91 -58 173 -110 183 -117 16 -11 -3 -26 -173 -134 -105
-66 -193 -121 -195 -121 -3 0 -5 111 -5 246 0 193 3 244 13 238 6 -5 86 -55
177 -112z"/>
</g>
</svg>
