<svg xmlns="http://www.w3.org/2000/svg" width="512" height="512" viewBox="0 0 512 512" version="1.1">
	<path d="M 213 1.046 C 182.395 4.368, 152.424 14.172, 126.500 29.342 C 111.686 38.011, 95.967 49.711, 90.262 56.315 C 88.273 58.617, 79.815 67.332, 71.467 75.682 C 51.631 95.521, 40.771 110.535, 28.363 135.272 C 23.441 145.085, 16 162.718, 16 164.569 C 16 164.923, 23.313 164.922, 32.250 164.566 C 41.188 164.210, 80 162.810, 118.500 161.454 C 247.055 156.925, 299.447 155.042, 305.750 154.722 C 309.188 154.548, 312 154.545, 312 154.716 C 312 154.887, 308.831 161.352, 304.959 169.083 C 279.823 219.257, 259.600 283.174, 252.879 333.684 L 251.657 342.869 241.579 351.154 C 236.035 355.711, 202.114 383.234, 166.198 412.315 C 130.283 441.397, 101.065 465.710, 101.270 466.345 C 101.916 468.340, 121.003 480.705, 133 486.900 C 154.847 498.181, 174.639 504.881, 198.690 509.135 C 215.333 512.078, 248.575 512.392, 265 509.760 C 328.856 499.529, 383.692 463.788, 421.893 407.500 C 460.242 350.993, 475.703 279.505, 464.391 211 C 462.333 198.538, 458.011 179.998, 457.166 180.008 C 456.569 180.015, 426.783 204.132, 345.940 270.062 C 271.146 331.059, 260 339.900, 260 338.228 C 260.001 334.750, 264.169 311.072, 267.547 295.359 C 276.640 253.058, 290.613 212.907, 310.198 172.803 L 320.305 152.106 325.402 151.583 C 328.206 151.295, 356.104 150.155, 387.397 149.050 C 418.690 147.944, 444.525 146.808, 444.808 146.525 C 445.091 146.243, 442.348 140.046, 438.714 132.756 C 403.636 62.394, 339.362 13.840, 266.182 2.420 C 254.301 0.566, 224.513 -0.204, 213 1.046 M 477.144 141.093 C 466.498 141.525, 457.605 142.062, 457.381 142.286 C 457.157 142.510, 457.728 144.450, 458.651 146.596 C 459.573 148.743, 462.199 155.815, 464.485 162.312 C 466.772 168.809, 469.061 174.106, 469.571 174.082 C 470.787 174.027, 510.884 141.728, 510.950 140.750 C 511.006 139.904, 504.920 139.966, 477.144 141.093 M 7.680 193.708 C 6.932 194.919, 3.408 213.835, 1.851 225 C -0.141 239.282, 0.143 279.446, 2.343 294.500 C 9.580 344.019, 28.144 388.151, 57.026 424.500 C 65.403 435.043, 85.154 455.247, 86.127 454.269 C 86.737 453.656, 148.989 282.651, 150.177 278.325 C 150.355 277.678, 136.100 268.518, 118.500 257.968 C 70.692 229.312, 11.049 193.956, 9.535 193.375 C 8.802 193.094, 7.967 193.244, 7.680 193.708" stroke="none" fill="black" fill-rule="evenodd"/>
</svg>